<svg width="25" height="24" viewBox="0 0 25 24" fill="none" xmlns="http://www.w3.org/2000/svg">
<path d="M5 6C5 4.114 5 3.172 5.4395 2.586C5.879 2 6.5855 2 8 2C9.4145 2 10.121 2 10.5605 2.586C11 3.172 11 4.114 11 6V18C11 19.886 11 20.828 10.5605 21.414C10.121 22 9.4145 22 8 22C6.5855 22 5.879 22 5.4395 21.414C5 20.828 5 19.886 5 18V6ZM14 6C14 4.114 14 3.172 14.4395 2.586C14.879 2 15.5855 2 17 2C18.4145 2 19.121 2 19.5605 2.586C20 3.172 20 4.114 20 6V18C20 19.886 20 20.828 19.5605 21.414C19.121 22 18.4145 22 17 22C15.5855 22 14.879 22 14.4395 21.414C14 20.828 14 19.886 14 18V6Z" fill="url(#paint0_linear_49_66)"/>
<defs>
<linearGradient id="paint0_linear_49_66" x1="12.5" y1="2" x2="12.5" y2="22" gradientUnits="userSpaceOnUse">
<stop stop-color="#FF4B4B"/>
<stop offset="1" stop-color="#C90000"/>
</linearGradient>
</defs>
</svg>
