<svg width="25" height="25" viewBox="0 0 25 25" fill="none" xmlns="http://www.w3.org/2000/svg">
<path d="M20.8333 7.25C21.3856 7.25 21.8333 6.80228 21.8333 6.25C21.8333 5.69772 21.3856 5.25 20.8333 5.25V7.25ZM14.5833 5.25C14.031 5.25 13.5833 5.69772 13.5833 6.25C13.5833 6.80228 14.031 7.25 14.5833 7.25V5.25ZM20.8333 11.4167C21.3856 11.4167 21.8333 10.969 21.8333 10.4167C21.8333 9.86438 21.3856 9.41667 20.8333 9.41667V11.4167ZM14.5833 9.41667C14.031 9.41667 13.5833 9.86438 13.5833 10.4167C13.5833 10.969 14.031 11.4167 14.5833 11.4167V9.41667ZM20.8333 15.5833C21.3856 15.5833 21.8333 15.1356 21.8333 14.5833C21.8333 14.031 21.3856 13.5833 20.8333 13.5833V15.5833ZM12.5 13.5833C11.9477 13.5833 11.5 14.031 11.5 14.5833C11.5 15.1356 11.9477 15.5833 12.5 15.5833V13.5833ZM20.8333 19.75C21.3856 19.75 21.8333 19.3023 21.8333 18.75C21.8333 18.1977 21.3856 17.75 20.8333 17.75V19.75ZM4.16663 17.75C3.61434 17.75 3.16663 18.1977 3.16663 18.75C3.16663 19.3023 3.61434 19.75 4.16663 19.75V17.75ZM8.33329 12.5H9.33329H8.33329ZM4.16663 12.5H3.16663H4.16663ZM6.24996 10.4167V11.4167V10.4167ZM10.4166 7.29167V8.29167C10.9689 8.29167 11.4166 7.84395 11.4166 7.29167H10.4166ZM10.4166 6.25H11.4166C11.4166 5.69772 10.9689 5.25 10.4166 5.25V6.25ZM8.33329 6.25V5.25C7.78101 5.25 7.33329 5.69772 7.33329 6.25H8.33329ZM20.8333 5.25H14.5833V7.25H20.8333V5.25ZM20.8333 9.41667H14.5833V11.4167H20.8333V9.41667ZM20.8333 13.5833H12.5V15.5833H20.8333V13.5833ZM20.8333 17.75H4.16663V19.75H20.8333V17.75ZM7.33329 12.5C7.33329 12.7873 7.21916 13.0629 7.01599 13.266L8.43021 14.6802C9.00844 14.102 9.33329 13.3178 9.33329 12.5H7.33329ZM7.01599 13.266C6.81283 13.4692 6.53728 13.5833 6.24996 13.5833V15.5833C7.06771 15.5833 7.85197 15.2585 8.43021 14.6802L7.01599 13.266ZM6.24996 13.5833C5.96264 13.5833 5.68709 13.4692 5.48393 13.266L4.06971 14.6802C4.64795 15.2585 5.43221 15.5833 6.24996 15.5833V13.5833ZM5.48393 13.266C5.28076 13.0629 5.16663 12.7873 5.16663 12.5H3.16663C3.16663 13.3178 3.49148 14.102 4.06971 14.6802L5.48393 13.266ZM5.16663 12.5C5.16663 12.2127 5.28076 11.9371 5.48393 11.734L4.06971 10.3198C3.49148 10.898 3.16663 11.6822 3.16663 12.5H5.16663ZM5.48393 11.734C5.68709 11.5308 5.96264 11.4167 6.24996 11.4167V9.41667C5.43221 9.41667 4.64795 9.74152 4.06971 10.3198L5.48393 11.734ZM6.24996 11.4167C6.53728 11.4167 6.81283 11.5308 7.01599 11.734L8.43021 10.3198C7.85197 9.74152 7.06771 9.41667 6.24996 9.41667V11.4167ZM7.01599 11.734C7.21916 11.9371 7.33329 12.2127 7.33329 12.5H9.33329C9.33329 11.6822 9.00844 10.898 8.43021 10.3198L7.01599 11.734ZM9.33329 12.5V7.29167H7.33329V12.5H9.33329ZM8.33329 8.29167H10.4166V6.29167H8.33329V8.29167ZM11.4166 7.29167V6.25H9.41663V7.29167H11.4166ZM10.4166 5.25H8.33329V7.25H10.4166V5.25ZM7.33329 6.25V7.29167H9.33329V6.25H7.33329Z" fill="#727272"/>
</svg>
