<svg width="25" height="25" viewBox="0 0 25 25" fill="none" xmlns="http://www.w3.org/2000/svg">
<path d="M16.1459 12.5C16.1459 12.9788 16.0516 13.4529 15.8684 13.8952C15.6852 14.3376 15.4166 14.7395 15.0781 15.078C14.7395 15.4166 14.3376 15.6851 13.8953 15.8683C13.4529 16.0516 12.9789 16.1459 12.5001 16.1459C12.0213 16.1459 11.5472 16.0516 11.1049 15.8683C10.6625 15.6851 10.2606 15.4166 9.92209 15.078C9.58354 14.7395 9.31499 14.3376 9.13177 13.8952C8.94855 13.4529 8.85425 12.9788 8.85425 12.5C8.85425 11.5331 9.23836 10.6058 9.92209 9.92203C10.6058 9.2383 11.5331 8.85419 12.5001 8.85419C13.467 8.85419 14.3943 9.2383 15.0781 9.92203C15.7618 10.6058 16.1459 11.5331 16.1459 12.5Z" stroke="#727272" stroke-width="2" stroke-linecap="round" stroke-linejoin="round"/>
<path d="M21.6563 9.53333C22.498 10.9813 22.9167 11.7052 22.9167 12.5C22.9167 13.2948 22.4969 14.0187 21.6563 15.4667L19.6532 18.9208C18.8167 20.3625 18.398 21.0833 17.7105 21.4792C17.023 21.875 16.1875 21.875 14.5177 21.875H10.4823C8.81254 21.875 7.97712 21.875 7.28962 21.4792C6.60212 21.0833 6.18337 20.3625 5.34692 18.9208L3.34379 15.4667C2.50317 14.0187 2.08337 13.2948 2.08337 12.5C2.08337 11.7052 2.50317 10.9813 3.34379 9.53333L5.34692 6.07917C6.18337 4.6375 6.60212 3.91667 7.28962 3.52083C7.97712 3.125 8.81254 3.125 10.4823 3.125H14.5177C16.1875 3.125 17.023 3.125 17.7105 3.52083C18.398 3.91667 18.8167 4.6375 19.6532 6.07917L21.6563 9.53333Z" stroke="#727272" stroke-width="2" stroke-linecap="round" stroke-linejoin="round"/>
</svg>
